<?xml version="1.0" encoding="UTF-8"?>
<svg id="Layer_1" data-name="Layer 1" xmlns="http://www.w3.org/2000/svg" xmlns:xlink="http://www.w3.org/1999/xlink" viewBox="0 0 195.19 68">
  <defs>
    <style>
      .cls-1 {
        fill: url(#linear-gradient-2);
      }

      .cls-2 {
        fill: url(#linear-gradient-4);
      }

      .cls-3 {
        fill: url(#linear-gradient-3);
      }

      .cls-4 {
        fill: url(#linear-gradient-5);
      }

      .cls-5 {
        fill: url(#linear-gradient);
      }

      .cls-6 {
        fill: #b289e4;
      }
    </style>
    <linearGradient id="linear-gradient" x1="53.14" y1="-124.5" x2="192.17" y2="-90.34" gradientTransform="translate(0 -85.63) scale(1 -1)" gradientUnits="userSpaceOnUse">
      <stop offset="0" stop-color="#b38ae6"/>
      <stop offset="1" stop-color="#422280"/>
    </linearGradient>
    <linearGradient id="linear-gradient-2" x1="55.09" y1="-132.43" x2="194.12" y2="-98.27" xlink:href="#linear-gradient"/>
    <linearGradient id="linear-gradient-3" x1="56.42" y1="-137.84" x2="195.45" y2="-103.68" xlink:href="#linear-gradient"/>
    <linearGradient id="linear-gradient-4" x1="58.04" y1="-144.44" x2="197.07" y2="-110.28" xlink:href="#linear-gradient"/>
    <linearGradient id="linear-gradient-5" x1="59.63" y1="-150.87" x2="198.65" y2="-116.71" xlink:href="#linear-gradient"/>
  </defs>
  <path class="cls-6" d="M49.89,0H1.31v2.36h33.34L0,68h48.59v-2.36H15.25L49.89,0Z"/>
  <path class="cls-5" d="M56.13,51.01V16.99h4.76l12.01,23.77,12.05-23.77h4.81v34.03h-4.08v-26.74l-11.23,21.97h-3.06l-11.18-21.87v26.64h-4.08Z"/>
  <path class="cls-1" d="M96.67,51.01V16.99h21.05v3.35h-16.96v11.86h15.51v3.3h-15.51v12.15h16.96v3.35h-21.05Z"/>
  <path class="cls-3" d="M123.82,51.01V16.99h10.01c3.99,0,7.26.7,9.82,2.09,2.59,1.36,4.5,3.32,5.74,5.88,1.26,2.53,1.9,5.57,1.9,9.14s-.63,6.51-1.9,9.04c-1.23,2.53-3.14,4.47-5.74,5.83-2.56,1.36-5.83,2.04-9.82,2.04h-10.01ZM127.91,47.61h5.83c3.31,0,5.93-.54,7.87-1.6,1.94-1.1,3.34-2.66,4.18-4.67.84-2.04,1.26-4.46,1.26-7.24s-.42-5.3-1.26-7.34c-.84-2.04-2.24-3.61-4.18-4.71-1.94-1.1-4.57-1.65-7.87-1.65h-5.83v27.22Z"/>
  <path class="cls-2" d="M156.96,51.01V16.99h4.08v34.03h-4.08Z"/>
  <path class="cls-4" d="M165.83,51.01l12.54-34.03h4.33l12.49,34.03h-4.33l-10.35-28.92-10.4,28.92h-4.28ZM171.57,42.26l1.17-3.31h15.41l1.17,3.31h-17.74Z"/>
</svg>